<?xml version="1.0" encoding="UTF-8"?>
<svg id="Layer_1" data-name="Layer 1" xmlns="http://www.w3.org/2000/svg" viewBox="0 0 678.13 436.99">
  <defs>
    <style>
      .cls-1 {
        fill: #fff;
      }

      .cls-2 {
        fill: #8d4299;
      }
    </style>
  </defs>
  <path class="cls-1" d="m0,16.18v303.64c0,8.93,7.24,16.18,16.18,16.18h100.39c8.93,0,16.18-7.24,16.18-16.18v-87.24c0-8.93-7.24-16.18-16.18-16.18h-3.52c-8.93,0-16.17,7.24-16.18,16.17l-.02,55.51c0,8.93-7.25,16.17-16.18,16.17h-28.09c-8.93,0-16.18-7.24-16.18-16.18v-87.68c0-8.93,7.24-16.18,16.18-16.18h63.99c8.93,0,16.18-7.24,16.18-16.18h0c0-8.85-7.11-16.06-15.96-16.18l-64.11-.85c-8.97-.12-16.13-7.51-15.96-16.48l1.63-86.51c.17-8.81,7.36-15.87,16.17-15.87h26.89c8.93,0,16.18,7.24,16.18,16.18v50.42c0,8.93,7.24,16.18,16.18,16.18h2.8c8.93,0,16.18-7.24,16.18-16.18V16.18C132.75,7.24,125.5,0,116.57,0H16.18C7.24,0,0,7.24,0,16.18Z"/>
  <rect class="cls-2" x="669.71" y="365.16" width="8.43" height="13.79"/>
  <path class="cls-1" d="m263.91,61.37h0c9.68.05,17.48,7.77,17.43,17.24l-.45,86.47c-.05,9.47-7.93,17.11-17.61,17.06l-97.7-.51c-9.68-.05-17.48-7.77-17.43-17.24l.77-147.33C148.97,7.62,156.8,0,166.44,0h2.59c9.66,0,17.5,7.66,17.52,17.12l.27,116.14c.02,9.42,7.81,17.07,17.43,17.12l24.06.13c9.67.05,17.55-7.57,17.61-17.03l.37-55.06c.06-9.46,7.94-17.08,17.61-17.03Z"/>
  <path class="cls-1" d="m255.83,212.61h0c9.51.05,17.18,7.93,17.13,17.61l-.46,88.33c-.05,9.68-7.8,17.48-17.31,17.43l-97.27-.51c-8.81-.05-15.91-7.35-15.87-16.31h0c.05-9.06,7.37-16.32,16.26-16.15l21.79.43h0l40.73.21c9.5.05,17.24-7.74,17.31-17.41l.38-56.25c.06-9.67,7.81-17.46,17.31-17.41Z"/>
  <circle class="cls-1" cx="201.51" cy="235.27" r="22.65"/>
</svg>